<svg width="195" height="220" viewBox="0 0 195 220" fill="none" xmlns="http://www.w3.org/2000/svg">
<path fill-rule="evenodd" clip-rule="evenodd" d="M162.098 1.49392L166.473 0.729736L173.611 3.12861C175.767 4.6813 177.203 6.01501 177.974 7.23337L180.248 5.74646L174.717 2.68614L179.422 4.46953L185.558 7.85967L178.766 1.20194L185.12 5.75457C188.984 10.6388 190.913 13.4099 190.913 14.074C190.911 15.3465 191.899 19.2241 193.82 25.7611C194.425 28.1438 194.752 30.3002 194.747 32.2413L194.727 41.4862L193.935 48.9577L193.271 48.2936L192.43 52.4983L193.61 46.0254L194.303 33.8454C194.188 33.6237 193.748 32.5711 192.98 30.6318C192.427 29.4135 192.098 28.8034 192.041 28.8034C191.82 28.8034 191.544 28.9665 191.209 29.299L191.23 20.5524L190.727 22.8206L190.223 25.4241L189.748 38.5386L188.918 38.3719L188.903 44.5745L188.41 43.9076L187.909 44.0708L187.127 47.2825L184.664 59.9545L182.534 70.1366L181.372 70.6296L176.633 84.9039L172.746 89.6016L172.245 91.7013L168.857 94.1308L166.246 98.6627L165.411 100.267L165.751 98.1643L168.032 92.3582L168.05 85.3815L169.337 79.1851L168.732 77.2486L166.3 75.3021L161.434 72.8545L159.507 68.1442L158.348 67.5341L157.244 64.9307L150.561 57.771L150.741 52.8994L151.246 49.466C150.422 47.3077 149.928 45.09 149.823 42.8218L148.988 43.8157L148.329 42.3189L147.387 42.482L147.384 43.9788L144.283 44.9142L143.95 44.4673L146.25 31.9628C144.865 32.5098 143.644 33.0082 142.701 33.5597C141.37 34.4437 140.262 35.6594 139.261 37.3175L140.763 34.2211L134.394 34.7042L126.468 39.3893L123.03 41.8206C120.035 43.6373 116.484 46.1227 112.489 49.2136L103.564 56.3328L93.7982 64.7802L91.3587 66.8772L85.3659 72.6788L76.4299 81.903L68.9375 90.4649L70.5371 91.7986L68.0994 92.9025L63.3764 100.53L58.3235 107.659L44.3175 130.992L41.2571 137.626L38.8023 144.267L38.6356 145.593L37.4685 147.859L37.2973 149.131L36.5187 150.293L33.5547 164.072L32.5995 170.047L32.2498 178.132L33.5016 187.544L34.656 189.542L35.7572 192.092C37.1414 193.423 38.0201 194.641 38.3526 195.859V195.53L39.9513 197.8L41.8879 198.802L41.7194 199.744L46.3099 202.522L57.3169 206.093L58.7633 204.491L58.0937 206.093L70.9508 199.977L85.8616 192.209L82.3182 193.693L62.0273 205.66L65.5707 204.34L84.7522 193.698L88.6354 191.437L88.7985 190.939L89.131 191.106L96.6153 186.751L97.3894 187.085L102.764 184.495L107.812 181.24L105.199 185.11L115.289 179.32L117.065 178.053L126.322 172.371L124.38 173.97L124.217 174.632L124.82 176.241L146.438 164.333L134.073 173.056L124.979 179.176L113.613 186.788L115.103 188.232L124.194 183.55L136.668 175.828L140.438 173.674L149.201 168.049L149.195 170.486L151.629 169.661L153.239 168.557L159.28 166.138L167.37 161.78L167.697 163.719L163.983 166.922L150.613 179.069L158.101 173.883L146.393 183.767L148.166 184.267L137.96 191.553L125.929 199.275L116.668 205.454C113.731 207.16 111.458 208.322 109.851 208.979L106.305 209.971C104.642 210.575 103.755 211.015 103.535 211.239C102.424 211.899 101.76 212.285 101.482 212.448C101.206 212.616 100.984 212.78 100.762 212.836L85.1947 217.064L73.3443 218.308L69.1367 218.467L67.8057 219.125L64.4317 218.62L60.1682 218.778C59.6699 218.776 58.2289 218.606 55.9606 218.267L52.0883 217.595C51.9756 217.483 51.8098 217.427 51.5314 217.373C51.2574 217.319 50.9789 217.258 50.8131 217.261C50.4842 217.204 50.2057 217.092 49.9831 217.038C49.7633 216.98 49.209 216.867 48.379 216.647L37.8164 212.69L24.7034 207.842L22.4379 206.011L22.1053 206.174C21.1122 205.012 20.4481 204.346 20.0056 204.233L17.2417 203.119L10.6154 195.63L9.17978 194.023L8.52102 191.251L4.34138 179.562L5.32997 159.3L6.33928 153.601L7.28191 153.272L6.67902 151.167L9.29513 144.528L10.5694 143.09L8.95539 148.07L7.15665 158.971L6.29332 173.365L8.70486 184.885L7.40447 172.095L9.09327 159.476L9.44022 153.772L9.44292 152.168L10.2197 151.504L9.88991 150.339L11.2263 146.801L14.0182 137.229C14.7436 135.074 16.5775 131.145 19.5262 125.397L20.3634 122.633L21.4727 121.691L22.6397 119.093L23.7536 117.323L23.4778 116.822L24.9206 114.888L27.3709 110.024L26.8725 108.418V109.026L22.9867 112.449L21.3186 116.322C21.8809 113.223 22.7163 110.789 23.7716 109.021L28.4946 101.445L29.166 99.0096L27.5619 97.8426L27.0645 98.8384L24.461 98.997L18.9053 106.903L13.0729 115.803L4.44862 133.334L0.0499878 145.171L4.11969 132.003L13.7424 113.259L20.9104 101.258L27.9224 86.8278L35.8617 76.497L42.5214 69.0354L52.6245 58.4838L55.2298 56.7185L65.9357 46.5543L71.6483 42.1423L85.1307 31.3194L105.423 18.2482L117.951 12.2429L115.507 14.8382L116.111 17.1091L109.781 25.069L109.774 28.1699L98.9016 35.8919L95.1878 39.4857L84.2593 48.0385L76.6624 54.6674L70.6083 60.9638L63.9486 68.0883L60.5107 71.3451L56.1237 76.3771L44.7437 89.6349L42.1357 93.007L37.7443 99.6386L27.6899 114.73L23.13 122.968L20.6833 128.665L17.0605 138.067L16.1107 142.438L14.9401 144.042L13.9902 150.074L12.1582 151.011L12.151 154.774L11.3768 154.107L9.84395 170.161L9.84124 171.434C9.83944 172.1 10.1657 174.037 10.8253 177.304C10.8226 177.636 10.9857 178.857 11.3129 181.013C11.3129 181.677 11.4742 182.735 11.8058 184.282L11.8319 172.106L13.9794 154.114L18.0518 140.839L19.664 137.245L23.4571 126.567L28.0143 118L38.9068 99.9757L49.4596 85.6041L54.6783 80.0791L60.8423 71.9579L63.9459 69.4166L78.7621 54.3403L82.3155 50.8024L91.4119 43.348L97.1245 39.3199L110.934 29.4414C114.482 27.0714 117.974 25.3087 121.3 24.0976L134.159 17.1524L140.643 15.2284L143.246 14.2966L143.24 16.0665L145.844 16.0719L148.112 16.4089L150.664 13.318L153.762 14.4859L154.598 12.6619L157.811 11.5607L157.98 10.3982L159.145 10.5667L158.488 7.35863L157.217 6.68907L159.487 5.696L161.429 3.92793L166.303 3.2764C167.907 3.2791 169.46 3.72607 171.003 4.61551C171.391 4.8399 171.782 5.00301 172.112 5.11836C172.221 5.11836 172.388 5.17153 172.607 5.33824C172.829 5.50676 172.995 5.61399 173.105 5.72844C173.44 5.84108 173.882 6.17361 174.543 6.73052L172.778 4.45691L169.069 2.17519L165.478 1.33531L164.202 2.32929L163.038 2.15987L162.098 1.49392Z" fill="#EC1C24"/>
</svg>
