<svg width="26" height="29" viewBox="0 0 26 29" fill="none" xmlns="http://www.w3.org/2000/svg">
<path d="M6.59901 14.6402C6.53375 14.2197 6.49989 13.7888 6.49989 13.35C6.49989 8.71082 10.2854 4.95001 14.9551 4.95001C19.6249 4.95001 23.4104 8.71082 23.4104 13.35C23.4104 14.398 23.2172 15.4011 22.8643 16.3262C22.791 16.5184 22.7544 16.6144 22.7378 16.6894C22.7213 16.7638 22.7149 16.816 22.7131 16.8921C22.7113 16.9689 22.7217 17.0535 22.7425 17.2227L23.1653 20.6565C23.211 21.0282 23.2339 21.214 23.1721 21.3491C23.1179 21.4675 23.0217 21.5616 22.9021 21.613C22.7656 21.6717 22.5803 21.6445 22.2097 21.5902L18.8652 21.1C18.6906 21.0744 18.6032 21.0616 18.5237 21.062C18.4451 21.0625 18.3906 21.0683 18.3136 21.0845C18.2358 21.1008 18.1364 21.1381 17.9376 21.2125C17.0101 21.5599 16.005 21.75 14.9551 21.75C14.5161 21.75 14.0848 21.7168 13.6637 21.6527M8.21308 25.95C11.3262 25.95 13.8499 23.3645 13.8499 20.175C13.8499 16.9856 11.3262 14.4 8.21308 14.4C5.09994 14.4 2.57624 16.9856 2.57624 20.175C2.57624 20.8161 2.67822 21.4329 2.86645 22.0091C2.94602 22.2527 2.98581 22.3744 2.99887 22.4576C3.0125 22.5445 3.01489 22.5933 3.00981 22.6811C3.00495 22.7651 2.98391 22.8602 2.94184 23.0502L2.29993 25.95L5.44447 25.5206C5.61611 25.4971 5.70192 25.4854 5.77686 25.4859C5.85577 25.4864 5.89765 25.4907 5.97504 25.5061C6.04854 25.5208 6.15779 25.5594 6.37631 25.6365C6.95205 25.8397 7.56999 25.95 8.21308 25.95Z" stroke="white" stroke-width="2.1" stroke-linecap="round" stroke-linejoin="round"/>
</svg>
