<svg width="26" height="28" viewBox="0 0 26 28" fill="none" xmlns="http://www.w3.org/2000/svg">
<path d="M8.99924 11.5959C9.73004 13.118 10.7263 14.5446 11.9879 15.8062C13.2496 17.0679 14.6762 18.0641 16.1983 18.7949C16.3292 18.8578 16.3946 18.8892 16.4775 18.9133C16.7718 18.9992 17.1333 18.9375 17.3826 18.759C17.4528 18.7088 17.5128 18.6488 17.6328 18.5287C17.9999 18.1616 18.1834 17.9781 18.368 17.8581C19.064 17.4056 19.9614 17.4056 20.6574 17.8581C20.842 17.9781 21.0255 18.1616 21.3926 18.5287L21.5972 18.7333C22.1552 19.2914 22.4342 19.5704 22.5858 19.87C22.8872 20.466 22.8872 21.1697 22.5858 21.7657C22.4342 22.0653 22.1552 22.3443 21.5972 22.9023L21.4317 23.0679C20.8756 23.624 20.5975 23.902 20.2195 24.1144C19.8 24.35 19.1485 24.5195 18.6674 24.518C18.2338 24.5167 17.9374 24.4326 17.3448 24.2644C14.1597 23.3604 11.1542 21.6547 8.64684 19.1473C6.13946 16.6399 4.43377 13.6345 3.52975 10.4494C3.36153 9.85672 3.27742 9.56038 3.27613 9.12679C3.2747 8.64565 3.44413 7.99414 3.67977 7.57466C3.89213 7.19662 4.17018 6.91857 4.72629 6.36247L4.8918 6.19695C5.44982 5.63894 5.72883 5.35993 6.02848 5.20837C6.62442 4.90694 7.32819 4.90694 7.92413 5.20837C8.22378 5.35993 8.50279 5.63894 9.0608 6.19695L9.26542 6.40156C9.6325 6.76865 9.81605 6.95219 9.93605 7.13676C10.3886 7.8328 10.3886 8.73011 9.93605 9.42614C9.81605 9.61071 9.6325 9.79425 9.26542 10.1613C9.14539 10.2814 9.08538 10.3414 9.03514 10.4115C8.85663 10.6608 8.79499 11.0223 8.8808 11.3167C8.90495 11.3995 8.93638 11.465 8.99924 11.5959Z" stroke="white" stroke-width="2.1" stroke-linecap="round" stroke-linejoin="round"/>
</svg>
