<svg width="26" height="27" viewBox="0 0 26 27" fill="none" xmlns="http://www.w3.org/2000/svg">
<g clip-path="url(#clip0_140_910)">
<path d="M12.8 0.899994C13.9566 0.899994 15.0722 1.04765 16.1468 1.34296C17.2214 1.63828 18.2263 2.06074 19.1615 2.61035C20.0966 3.15996 20.9457 3.81621 21.7085 4.5791C22.4714 5.34199 23.1277 6.19511 23.6773 7.13847C24.2269 8.08183 24.6494 9.08671 24.9447 10.1531C25.24 11.2195 25.3917 12.3352 25.4 13.5C25.4 14.6566 25.2523 15.7723 24.957 16.8469C24.6617 17.9215 24.2392 18.9264 23.6896 19.8615C23.14 20.7967 22.4837 21.6457 21.7208 22.4086C20.958 23.1715 20.1048 23.8277 19.1615 24.3773C18.2181 24.9269 17.2132 25.3494 16.1468 25.6447C15.0804 25.94 13.9648 26.0918 12.8 26.1C11.6433 26.1 10.5277 25.9523 9.45308 25.657C8.37847 25.3617 7.37358 24.9393 6.43843 24.3896C5.50327 23.84 4.65425 23.1838 3.89136 22.4209C3.12847 21.658 2.47222 20.8049 1.92261 19.8615C1.373 18.9182 0.950537 17.9174 0.655225 16.8592C0.359912 15.801 0.208154 14.6812 0.199951 13.5C0.199951 12.3434 0.347607 11.2277 0.64292 10.1531C0.938232 9.07851 1.36069 8.07363 1.9103 7.13847C2.45991 6.20331 3.11616 5.35429 3.87905 4.5914C4.64194 3.82851 5.49507 3.17226 6.43843 2.62265C7.38179 2.07304 8.38257 1.65058 9.44077 1.35527C10.499 1.05995 11.6187 0.908197 12.8 0.899994ZM12.8 24.525C13.8089 24.525 14.781 24.3937 15.7162 24.1312C16.6513 23.8687 17.5291 23.4996 18.3494 23.0238C19.1697 22.548 19.9162 21.9697 20.5888 21.2889C21.2615 20.608 21.8357 19.8656 22.3115 19.0617C22.7873 18.2578 23.1605 17.3801 23.4312 16.4285C23.7019 15.4769 23.8332 14.5008 23.825 13.5C23.825 12.491 23.6937 11.5189 23.4312 10.5838C23.1687 9.64863 22.7996 8.77089 22.3238 7.95058C21.848 7.13027 21.2697 6.38378 20.5888 5.71113C19.908 5.03847 19.1656 4.46425 18.3617 3.98847C17.5578 3.51269 16.68 3.13945 15.7285 2.86874C14.7769 2.59804 13.8007 2.46679 12.8 2.47499C11.791 2.47499 10.8189 2.60624 9.88374 2.86874C8.94858 3.13124 8.07085 3.50038 7.25054 3.97617C6.43022 4.45195 5.68374 5.03027 5.01108 5.71113C4.33843 6.39199 3.76421 7.13437 3.28843 7.93828C2.81265 8.74218 2.4394 9.61992 2.1687 10.5715C1.898 11.523 1.76675 12.4992 1.77495 13.5C1.77495 14.509 1.9062 15.481 2.1687 16.4162C2.4312 17.3514 2.80034 18.2291 3.27612 19.0494C3.7519 19.8697 4.33022 20.6162 5.01108 21.2889C5.69194 21.9615 6.43433 22.5357 7.23823 23.0115C8.04214 23.4873 8.91987 23.8605 9.87144 24.1312C10.823 24.4019 11.7992 24.5332 12.8 24.525ZM20.1459 13.6969L20.7365 11.925H21.6593L20.6134 15.075H19.6906L19.1 13.3031L18.5093 15.075H17.5865L16.5406 11.925H17.4634L18.0541 13.6969L18.6447 11.925H19.5552L20.1459 13.6969ZM14.4365 11.925H15.3593L14.3134 15.075H13.3906L12.8 13.3031L12.2093 15.075H11.2865L10.2406 11.925H11.1634L11.7541 13.6969L12.3447 11.925H13.2552L13.8458 13.6969L14.4365 11.925ZM8.13648 11.925H9.05933L8.01343 15.075H7.09058L6.49995 13.3031L5.90933 15.075H4.98647L3.94058 11.925H4.86343L5.45405 13.6969L6.04468 11.925H6.95522L7.54585 13.6969L8.13648 11.925Z" fill="white"/>
</g>
<defs>
<clipPath id="clip0_140_910">
<rect width="25.2" height="25.2" fill="white" transform="translate(0.199951 0.899994)"/>
</clipPath>
</defs>
</svg>
